<?xml version="1.0" encoding="utf-8" standalone="no"?>
<!DOCTYPE svg PUBLIC "-//W3C//DTD SVG 1.1//EN"
  "http://www.w3.org/Graphics/SVG/1.1/DTD/svg11.dtd">
<!-- Created with matplotlib (https://matplotlib.org/) -->
<svg height="266.154581pt" version="1.1" viewBox="0 0 282.251654 266.154581" width="282.251654pt" xmlns="http://www.w3.org/2000/svg" xmlns:xlink="http://www.w3.org/1999/xlink">
 <defs>
  <style type="text/css">
*{stroke-linecap:butt;stroke-linejoin:round;}
  </style>
 </defs>
 <g id="figure_1">
  <g id="patch_1">
   <path d="M 0 266.154581 
L 282.251654 266.154581 
L 282.251654 0 
L 0 0 
z
" style="fill:#ffffff;"/>
  </g>
  <g id="axes_1">
   <g id="patch_2">
    <path d="M 46.870318 228.14 
L 270.070318 228.14 
L 270.070318 10.7 
L 46.870318 10.7 
z
" style="fill:#ffffff;"/>
   </g>
   <g id="matplotlib.axis_1">
    <g id="xtick_1">
     <g id="line2d_1">
      <defs>
       <path d="M 0 0 
L 0 3.5 
" id="ma767901c9b" style="stroke:#000000;stroke-width:0.8;"/>
      </defs>
      <g>
       <use style="stroke:#000000;stroke-width:0.8;" x="46.870318" xlink:href="#ma767901c9b" y="228.14"/>
      </g>
     </g>
     <g id="text_1">
      <!-- $-30$ -->
      <defs>
       <path d="M 65.90625 23 
C 67.59375 23 69.40625 23 69.40625 25 
C 69.40625 27 67.59375 27 65.90625 27 
L 11.796875 27 
C 10.09375 27 8.296875 27 8.296875 25 
C 8.296875 23 10.09375 23 11.796875 23 
z
" id="CMSY10-0"/>
       <path d="M 22.09375 34 
C 31 34 34.90625 26.140625 34.90625 17.09375 
C 34.90625 5.03125 28.5 0.390625 22.703125 0.390625 
C 17.40625 0.390625 8.796875 3.015625 6.09375 10.796875 
C 6.59375 10.59375 7.09375 10.59375 7.59375 10.59375 
C 10 10.59375 11.796875 12.1875 11.796875 14.796875 
C 11.796875 17.6875 9.59375 19 7.59375 19 
C 5.90625 19 3.296875 18.1875 3.296875 14.484375 
C 3.296875 5.234375 12.296875 -2 22.90625 -2 
C 34 -2 42.5 6.75 42.5 16.984375 
C 42.5 26.84375 34.5 34 25 35.09375 
C 32.59375 36.671875 39.90625 43.375 39.90625 52.390625 
C 39.90625 60.25 32 66 23 66 
C 13.90625 66 5.90625 60.34375 5.90625 52.296875 
C 5.90625 48.796875 8.5 48.1875 9.796875 48.1875 
C 11.90625 48.1875 13.703125 49.484375 13.703125 52.09375 
C 13.703125 54.6875 11.90625 56 9.796875 56 
C 9.40625 56 8.90625 56 8.5 55.796875 
C 11.40625 62.484375 19.296875 63.6875 22.796875 63.6875 
C 26.296875 63.6875 32.90625 61.96875 32.90625 52.296875 
C 32.90625 49.484375 32.5 44.546875 29.09375 40.21875 
C 26.09375 36.390625 22.703125 36.1875 19.40625 35.890625 
C 18.90625 35.890625 16.59375 35.6875 16.203125 35.6875 
C 15.5 35.59375 15.09375 35.5 15.09375 34.796875 
C 15.09375 34.09375 15.203125 34 17.203125 34 
z
" id="CMR17-51"/>
       <path d="M 42 31.84375 
C 42 37.96875 41.90625 48.421875 37.703125 56.453125 
C 34 63.484375 28.09375 66 22.90625 66 
C 18.09375 66 12 63.78125 8.203125 56.5625 
C 4.203125 49.015625 3.796875 39.671875 3.796875 31.84375 
C 3.796875 26.109375 3.90625 17.375 7 9.734375 
C 11.296875 -0.609375 19 -2 22.90625 -2 
C 27.5 -2 34.5 -0.109375 38.59375 9.4375 
C 41.59375 16.375 42 24.5 42 31.84375 
z
M 22.90625 -0.40625 
C 16.5 -0.40625 12.703125 5.125 11.296875 12.75 
C 10.203125 18.6875 10.203125 27.328125 10.203125 32.953125 
C 10.203125 40.6875 10.203125 47.109375 11.5 53.234375 
C 13.40625 61.78125 19 64.390625 22.90625 64.390625 
C 27 64.390625 32.296875 61.671875 34.203125 53.4375 
C 35.5 47.71875 35.59375 40.984375 35.59375 32.953125 
C 35.59375 26.421875 35.59375 18.375 34.40625 12.453125 
C 32.296875 1.5 26.40625 -0.40625 22.90625 -0.40625 
z
" id="CMR17-48"/>
      </defs>
      <g transform="translate(38.014611 242.058498)scale(0.1 -0.1)">
       <use transform="scale(0.996264)" xlink:href="#CMSY10-0"/>
       <use transform="translate(77.487468 0)scale(0.996264)" xlink:href="#CMR17-51"/>
       <use transform="translate(123.177945 0)scale(0.996264)" xlink:href="#CMR17-48"/>
      </g>
     </g>
    </g>
    <g id="xtick_2">
     <g id="line2d_2">
      <g>
       <use style="stroke:#000000;stroke-width:0.8;" x="84.070318" xlink:href="#ma767901c9b" y="228.14"/>
      </g>
     </g>
     <g id="text_2">
      <!-- $-20$ -->
      <defs>
       <path d="M 41.703125 15.46875 
L 39.90625 15.46875 
C 38.90625 8.390625 38.09375 7.1875 37.703125 6.59375 
C 37.203125 5.796875 30 5.796875 28.59375 5.796875 
L 9.40625 5.796875 
C 13 9.6875 20 16.765625 28.5 24.9375 
C 34.59375 30.71875 41.703125 37.5 41.703125 47.390625 
C 41.703125 59.1875 32.296875 66 21.796875 66 
C 10.796875 66 4.09375 56.296875 4.09375 47.296875 
C 4.09375 43.390625 7 42.890625 8.203125 42.890625 
C 9.203125 42.890625 12.203125 43.484375 12.203125 46.984375 
C 12.203125 50.09375 9.59375 51 8.203125 51 
C 7.59375 51 7 50.890625 6.59375 50.6875 
C 8.5 59.1875 14.296875 63.390625 20.40625 63.390625 
C 29.09375 63.390625 34.796875 56.5 34.796875 47.390625 
C 34.796875 38.703125 29.703125 31.21875 24 24.734375 
L 4.09375 2.296875 
L 4.09375 0 
L 39.296875 0 
z
" id="CMR17-50"/>
      </defs>
      <g transform="translate(75.214611 242.058498)scale(0.1 -0.1)">
       <use transform="scale(0.996264)" xlink:href="#CMSY10-0"/>
       <use transform="translate(77.487468 0)scale(0.996264)" xlink:href="#CMR17-50"/>
       <use transform="translate(123.177945 0)scale(0.996264)" xlink:href="#CMR17-48"/>
      </g>
     </g>
    </g>
    <g id="xtick_3">
     <g id="line2d_3">
      <g>
       <use style="stroke:#000000;stroke-width:0.8;" x="121.270318" xlink:href="#ma767901c9b" y="228.14"/>
      </g>
     </g>
     <g id="text_3">
      <!-- $-10$ -->
      <defs>
       <path d="M 26.59375 63.796875 
C 26.59375 65.890625 26.5 66 25.09375 66 
C 21.203125 61.359375 15.296875 59.890625 9.703125 59.6875 
C 9.40625 59.6875 8.90625 59.6875 8.796875 59.5 
C 8.703125 59.296875 8.703125 59.09375 8.703125 57 
C 11.796875 57 17 57.59375 21 59.984375 
L 21 7.296875 
C 21 3.796875 20.796875 2.59375 12.203125 2.59375 
L 9.203125 2.59375 
L 9.203125 0 
C 14 0.09375 19 0.1875 23.796875 0.1875 
C 28.59375 0.1875 33.59375 0.09375 38.40625 0 
L 38.40625 2.59375 
L 35.40625 2.59375 
C 26.796875 2.59375 26.59375 3.6875 26.59375 7.296875 
z
" id="CMR17-49"/>
      </defs>
      <g transform="translate(112.414611 242.058498)scale(0.1 -0.1)">
       <use transform="scale(0.996264)" xlink:href="#CMSY10-0"/>
       <use transform="translate(77.487468 0)scale(0.996264)" xlink:href="#CMR17-49"/>
       <use transform="translate(123.177945 0)scale(0.996264)" xlink:href="#CMR17-48"/>
      </g>
     </g>
    </g>
    <g id="xtick_4">
     <g id="line2d_4">
      <g>
       <use style="stroke:#000000;stroke-width:0.8;" x="158.470318" xlink:href="#ma767901c9b" y="228.14"/>
      </g>
     </g>
     <g id="text_4">
      <!-- $0$ -->
      <g transform="translate(155.979651 242.058498)scale(0.1 -0.1)">
       <use transform="scale(0.996264)" xlink:href="#CMR17-48"/>
      </g>
     </g>
    </g>
    <g id="xtick_5">
     <g id="line2d_5">
      <g>
       <use style="stroke:#000000;stroke-width:0.8;" x="195.670318" xlink:href="#ma767901c9b" y="228.14"/>
      </g>
     </g>
     <g id="text_5">
      <!-- $10$ -->
      <g transform="translate(190.688983 242.058498)scale(0.1 -0.1)">
       <use transform="scale(0.996264)" xlink:href="#CMR17-49"/>
       <use transform="translate(45.690477 0)scale(0.996264)" xlink:href="#CMR17-48"/>
      </g>
     </g>
    </g>
    <g id="xtick_6">
     <g id="line2d_6">
      <g>
       <use style="stroke:#000000;stroke-width:0.8;" x="232.870318" xlink:href="#ma767901c9b" y="228.14"/>
      </g>
     </g>
     <g id="text_6">
      <!-- $20$ -->
      <g transform="translate(227.888983 242.058498)scale(0.1 -0.1)">
       <use transform="scale(0.996264)" xlink:href="#CMR17-50"/>
       <use transform="translate(45.690477 0)scale(0.996264)" xlink:href="#CMR17-48"/>
      </g>
     </g>
    </g>
    <g id="xtick_7">
     <g id="line2d_7">
      <g>
       <use style="stroke:#000000;stroke-width:0.8;" x="270.070318" xlink:href="#ma767901c9b" y="228.14"/>
      </g>
     </g>
     <g id="text_7">
      <!-- $30$ -->
      <g transform="translate(265.088983 242.058498)scale(0.1 -0.1)">
       <use transform="scale(0.996264)" xlink:href="#CMR17-51"/>
       <use transform="translate(45.690477 0)scale(0.996264)" xlink:href="#CMR17-48"/>
      </g>
     </g>
    </g>
    <g id="text_8">
     <!-- $x$ (cm) -->
     <defs>
      <path d="M 47.40625 41 
C 44.203125 40.390625 43 37.984375 43 36.09375 
C 43 33.6875 44.90625 32.890625 46.296875 32.890625 
C 49.296875 32.890625 51.40625 35.484375 51.40625 38.1875 
C 51.40625 42.09375 46.59375 44 42.40625 44 
C 36.296875 44 32.90625 38.296875 32 36.390625 
C 29.703125 43.59375 23.5 44 21.703125 44 
C 11.5 44 6.09375 31.140625 6.09375 28.890625 
C 6.09375 28.484375 6.5 27.96875 7.203125 27.96875 
C 8 27.96875 8.203125 28.578125 8.40625 28.984375 
C 11.796875 40.1875 18.5 41.984375 21.40625 41.984375 
C 25.90625 41.984375 26.796875 38.09375 26.796875 35.6875 
C 26.796875 33.484375 26.203125 31.140625 25 26.21875 
L 21.59375 12.15625 
C 20.09375 6.09375 17.203125 1 11.90625 1 
C 11.40625 1 8.90625 1 6.796875 1.96875 
C 10.40625 2.59375 11.203125 5.59375 11.203125 6.796875 
C 11.203125 8.796875 9.703125 10 7.796875 10 
C 5.40625 10 2.796875 7.890625 2.796875 4.6875 
C 2.796875 0.890625 7.5 -1 11.796875 -1 
C 16.59375 -1 20 2.390625 22.09375 6.484375 
C 23.703125 1 28.703125 -1 32.40625 -1 
C 42.59375 -1 48 11.734375 48 14 
C 48 14.515625 47.59375 14.921875 47 14.921875 
C 46.09375 14.921875 46 14.40625 45.703125 13.59375 
C 43 4.6875 37.203125 1 32.703125 1 
C 29.203125 1 27.296875 3.1875 27.296875 7.296875 
C 27.296875 9.484375 27.703125 11.125 29.296875 17.90625 
L 32.796875 31.859375 
C 34.296875 37.890625 37.703125 41.984375 42.296875 41.984375 
C 42.5 41.984375 45.296875 41.984375 47.40625 41 
z
" id="CMMI12-120"/>
      <path d="M 30.59375 -24.40625 
C 30.59375 -24.3125 30.59375 -24.109375 30.296875 -23.8125 
C 25.703125 -19.109375 13.40625 -6.296875 13.40625 24.9375 
C 13.40625 56.171875 25.5 68.875 30.40625 73.890625 
C 30.40625 73.984375 30.59375 74.1875 30.59375 74.484375 
C 30.59375 74.796875 30.296875 75 29.90625 75 
C 28.796875 75 20.296875 67.578125 15.40625 56.5625 
C 10.40625 45.453125 9 34.65625 9 25.046875 
C 9 17.828125 9.703125 5.625 15.703125 -7.296875 
C 20.5 -17.703125 28.703125 -25 29.90625 -25 
C 30.40625 -25 30.59375 -24.8125 30.59375 -24.40625 
z
" id="CMR17-40"/>
      <path d="M 34.90625 35 
C 33 35 30.203125 35 30.203125 31.484375 
C 30.203125 28.6875 32.5 27.890625 33.796875 27.890625 
C 34.5 27.890625 37.40625 28.1875 37.40625 31.6875 
C 37.40625 38.6875 30.59375 44 22.90625 44 
C 12.296875 44 3.296875 34.390625 3.296875 21.546875 
C 3.296875 8.140625 12.703125 -1 22.90625 -1 
C 35.296875 -1 38.40625 10.5625 38.40625 11.671875 
C 38.40625 12.078125 38.296875 12.375 37.59375 12.375 
C 36.90625 12.375 36.796875 12.28125 36.40625 10.96875 
C 33.796875 2.8125 28.09375 0.796875 23.796875 0.796875 
C 17.40625 0.796875 9.703125 6.734375 9.703125 21.640625 
C 9.703125 36.84375 17.09375 42.1875 23 42.1875 
C 26.90625 42.1875 32.703125 40.34375 34.90625 35 
z
" id="CMR17-99"/>
      <path d="M 67.59375 30.53125 
C 67.59375 35.5625 66.703125 44 54.796875 44 
C 48 44 43.296875 39.375 41.5 33.953125 
L 41.40625 33.953125 
C 40.203125 42.1875 34.296875 44 28.703125 44 
C 20.796875 44 16.703125 37.875 15.203125 33.84375 
L 15.09375 33.84375 
L 15.09375 44 
L 3.296875 42.890625 
L 3.296875 40.28125 
C 9.203125 40.28125 10.09375 39.6875 10.09375 34.859375 
L 10.09375 6.921875 
C 10.09375 3.09375 9.703125 2.59375 3.296875 2.59375 
L 3.296875 0 
C 5.703125 0.1875 10.09375 0.1875 12.703125 0.1875 
C 15.296875 0.1875 19.796875 0.1875 22.203125 0 
L 22.203125 2.59375 
C 15.796875 2.59375 15.40625 3 15.40625 6.921875 
L 15.40625 26.21875 
C 15.40625 35.453125 21 42.390625 28 42.390625 
C 35.40625 42.390625 36.203125 35.765625 36.203125 30.9375 
L 36.203125 6.921875 
C 36.203125 3.09375 35.796875 2.59375 29.40625 2.59375 
L 29.40625 0 
C 31.796875 0.1875 36.203125 0.1875 38.796875 0.1875 
C 41.40625 0.1875 45.90625 0.1875 48.296875 0 
L 48.296875 2.59375 
C 41.90625 2.59375 41.5 3 41.5 6.921875 
L 41.5 26.21875 
C 41.5 35.453125 47.09375 42.390625 54.09375 42.390625 
C 61.5 42.390625 62.296875 35.765625 62.296875 30.9375 
L 62.296875 6.921875 
C 62.296875 3.09375 61.90625 2.59375 55.5 2.59375 
L 55.5 0 
C 57.90625 0.1875 62.296875 0.1875 64.90625 0.1875 
C 67.5 0.1875 72 0.1875 74.40625 0 
L 74.40625 2.59375 
C 68 2.59375 67.59375 3 67.59375 6.921875 
z
" id="CMR17-109"/>
      <path d="M 26.296875 24.9375 
C 26.296875 32.140625 25.59375 44.359375 19.59375 57.265625 
C 14.796875 67.6875 6.59375 75 5.40625 75 
C 5.09375 75 4.703125 74.890625 4.703125 74.390625 
C 4.703125 74.1875 4.796875 74.09375 4.90625 73.890625 
C 9.703125 68.875 21.90625 56.171875 21.90625 25.046875 
C 21.90625 -6.1875 9.796875 -18.90625 4.90625 -23.90625 
C 4.796875 -24.109375 4.703125 -24.203125 4.703125 -24.40625 
C 4.703125 -24.90625 5.09375 -25 5.40625 -25 
C 6.5 -25 15 -17.609375 19.90625 -6.59375 
C 24.90625 4.515625 26.296875 15.328125 26.296875 24.9375 
z
" id="CMR17-41"/>
     </defs>
     <g transform="translate(142.248831 256.214855)scale(0.11 -0.11)">
      <use transform="scale(0.996264)" xlink:href="#CMMI12-120"/>
      <use transform="translate(85.510026 0)scale(0.996264)" xlink:href="#CMR17-40"/>
      <use transform="translate(120.790794 0)scale(0.996264)" xlink:href="#CMR17-99"/>
      <use transform="translate(161.276454 0)scale(0.996264)" xlink:href="#CMR17-109"/>
      <use transform="translate(238.196044 0)scale(0.996264)" xlink:href="#CMR17-41"/>
     </g>
    </g>
   </g>
   <g id="matplotlib.axis_2">
    <g id="ytick_1">
     <g id="line2d_8">
      <defs>
       <path d="M 0 0 
L -3.5 0 
" id="mce53da1d19" style="stroke:#000000;stroke-width:0.8;"/>
      </defs>
      <g>
       <use style="stroke:#000000;stroke-width:0.8;" x="46.870318" xlink:href="#mce53da1d19" y="228.14"/>
      </g>
     </g>
     <g id="text_9">
      <!-- $-30$ -->
      <g transform="translate(22.158904 231.599249)scale(0.1 -0.1)">
       <use transform="scale(0.996264)" xlink:href="#CMSY10-0"/>
       <use transform="translate(77.487468 0)scale(0.996264)" xlink:href="#CMR17-51"/>
       <use transform="translate(123.177945 0)scale(0.996264)" xlink:href="#CMR17-48"/>
      </g>
     </g>
    </g>
    <g id="ytick_2">
     <g id="line2d_9">
      <g>
       <use style="stroke:#000000;stroke-width:0.8;" x="46.870318" xlink:href="#mce53da1d19" y="191.9"/>
      </g>
     </g>
     <g id="text_10">
      <!-- $-20$ -->
      <g transform="translate(22.158904 195.359249)scale(0.1 -0.1)">
       <use transform="scale(0.996264)" xlink:href="#CMSY10-0"/>
       <use transform="translate(77.487468 0)scale(0.996264)" xlink:href="#CMR17-50"/>
       <use transform="translate(123.177945 0)scale(0.996264)" xlink:href="#CMR17-48"/>
      </g>
     </g>
    </g>
    <g id="ytick_3">
     <g id="line2d_10">
      <g>
       <use style="stroke:#000000;stroke-width:0.8;" x="46.870318" xlink:href="#mce53da1d19" y="155.66"/>
      </g>
     </g>
     <g id="text_11">
      <!-- $-10$ -->
      <g transform="translate(22.158904 159.119249)scale(0.1 -0.1)">
       <use transform="scale(0.996264)" xlink:href="#CMSY10-0"/>
       <use transform="translate(77.487468 0)scale(0.996264)" xlink:href="#CMR17-49"/>
       <use transform="translate(123.177945 0)scale(0.996264)" xlink:href="#CMR17-48"/>
      </g>
     </g>
    </g>
    <g id="ytick_4">
     <g id="line2d_11">
      <g>
       <use style="stroke:#000000;stroke-width:0.8;" x="46.870318" xlink:href="#mce53da1d19" y="119.42"/>
      </g>
     </g>
     <g id="text_12">
      <!-- $0$ -->
      <g transform="translate(34.888983 122.879249)scale(0.1 -0.1)">
       <use transform="scale(0.996264)" xlink:href="#CMR17-48"/>
      </g>
     </g>
    </g>
    <g id="ytick_5">
     <g id="line2d_12">
      <g>
       <use style="stroke:#000000;stroke-width:0.8;" x="46.870318" xlink:href="#mce53da1d19" y="83.18"/>
      </g>
     </g>
     <g id="text_13">
      <!-- $10$ -->
      <g transform="translate(29.907648 86.639249)scale(0.1 -0.1)">
       <use transform="scale(0.996264)" xlink:href="#CMR17-49"/>
       <use transform="translate(45.690477 0)scale(0.996264)" xlink:href="#CMR17-48"/>
      </g>
     </g>
    </g>
    <g id="ytick_6">
     <g id="line2d_13">
      <g>
       <use style="stroke:#000000;stroke-width:0.8;" x="46.870318" xlink:href="#mce53da1d19" y="46.94"/>
      </g>
     </g>
     <g id="text_14">
      <!-- $20$ -->
      <g transform="translate(29.907648 50.399249)scale(0.1 -0.1)">
       <use transform="scale(0.996264)" xlink:href="#CMR17-50"/>
       <use transform="translate(45.690477 0)scale(0.996264)" xlink:href="#CMR17-48"/>
      </g>
     </g>
    </g>
    <g id="ytick_7">
     <g id="line2d_14">
      <g>
       <use style="stroke:#000000;stroke-width:0.8;" x="46.870318" xlink:href="#mce53da1d19" y="10.7"/>
      </g>
     </g>
     <g id="text_15">
      <!-- $30$ -->
      <g transform="translate(29.907648 14.159249)scale(0.1 -0.1)">
       <use transform="scale(0.996264)" xlink:href="#CMR17-51"/>
       <use transform="translate(45.690477 0)scale(0.996264)" xlink:href="#CMR17-48"/>
      </g>
     </g>
    </g>
    <g id="text_16">
     <!-- $y$ (cm) -->
     <defs>
      <path d="M 26.296875 -10.515625 
C 23.59375 -14.390625 19.703125 -18 14.796875 -18 
C 13.59375 -18 8.796875 -17.796875 7.296875 -12.90625 
C 7.59375 -13.015625 8.09375 -13.015625 8.296875 -13.015625 
C 11.296875 -13.015625 13.296875 -10.40625 13.296875 -8.109375 
C 13.296875 -5.8125 11.40625 -5 9.90625 -5 
C 8.296875 -5 4.796875 -6.203125 4.796875 -11.109375 
C 4.796875 -16.40625 9.09375 -20 14.796875 -20 
C 24.796875 -20 34.90625 -10.515625 37.703125 -0.109375 
L 47.5 38.796875 
C 47.59375 39.296875 47.796875 39.890625 47.796875 40.484375 
C 47.796875 41.984375 46.59375 43 45.09375 43 
C 44.203125 43 42.09375 42.59375 41.296875 39.59375 
L 33.90625 10.265625 
C 33.40625 8.46875 33.40625 8.28125 32.59375 7.171875 
C 30.59375 4.390625 27.296875 1 22.5 1 
C 16.90625 1 16.40625 6.484375 16.40625 9.171875 
C 16.40625 14.859375 19.09375 22.546875 21.796875 29.71875 
C 22.90625 32.609375 23.5 34.015625 23.5 36.015625 
C 23.5 40.203125 20.5 44 15.59375 44 
C 6.40625 44 2.703125 29.53125 2.703125 28.71875 
C 2.703125 28.328125 3.09375 27.828125 3.796875 27.828125 
C 4.703125 27.828125 4.796875 28.234375 5.203125 29.625 
C 7.59375 38 11.40625 41.984375 15.296875 41.984375 
C 16.203125 41.984375 17.90625 41.984375 17.90625 38.703125 
C 17.90625 36.109375 16.796875 33.21875 15.296875 29.421875 
C 10.40625 16.359375 10.40625 13.0625 10.40625 10.671875 
C 10.40625 1.1875 17.203125 -1 22.203125 -1 
C 25.09375 -1 28.703125 -0.109375 32.203125 3.59375 
L 32.296875 3.484375 
C 30.796875 -2.203125 29.796875 -5.609375 26.296875 -10.515625 
z
" id="CMMI12-121"/>
     </defs>
     <g transform="translate(15.419178 135.3929)rotate(-90)scale(0.11 -0.11)">
      <use transform="scale(0.996264)" xlink:href="#CMMI12-121"/>
      <use transform="translate(81.214747 0)scale(0.996264)" xlink:href="#CMR17-40"/>
      <use transform="translate(116.495515 0)scale(0.996264)" xlink:href="#CMR17-99"/>
      <use transform="translate(156.981175 0)scale(0.996264)" xlink:href="#CMR17-109"/>
      <use transform="translate(233.900765 0)scale(0.996264)" xlink:href="#CMR17-41"/>
     </g>
    </g>
   </g>
   <g id="line2d_15">
    <path clip-path="url(#pf04e8f8d4d)" d="M 158.470318 41.504 
L 238.450318 41.504 
L 238.450318 197.336 
L 78.490318 197.336 
L 78.490318 41.504 
L 157.074262 41.504 
L 157.074262 41.504 
" style="fill:none;stroke:#1f77b4;stroke-linecap:square;stroke-width:1.5;"/>
   </g>
   <g id="line2d_16">
    <path clip-path="url(#pf04e8f8d4d)" d="M 158.470318 42.9536 
L 159.840193 42.965246 
L 161.222632 42.638002 
L 165.343769 42.883557 
L 168.081422 43.16387 
L 169.497838 42.980019 
L 172.229505 43.401508 
L 173.873184 42.224053 
L 175.408468 41.788729 
L 176.796631 42.088535 
L 181.233554 42.083805 
L 182.615543 42.482605 
L 184.105132 42.560177 
L 187.351867 42.116374 
L 190.103598 43.145406 
L 191.901274 42.694079 
L 193.270706 43.274159 
L 195.730035 41.578312 
L 197.118872 42.223658 
L 199.00259 41.923817 
L 200.559383 42.30477 
L 204.412318 41.899641 
L 209.729566 42.524644 
L 212.555456 41.304764 
L 216.632845 41.432056 
L 218.916619 41.275113 
L 220.765409 41.743574 
L 223.083902 41.687996 
L 225.183959 41.965553 
L 227.781643 41.744082 
L 231.402878 40.510504 
L 234.327632 40.172268 
L 236.068217 43.824628 
L 236.875479 45.658951 
L 235.736374 49.227638 
L 236.705633 50.7945 
L 236.836665 55.359787 
L 236.526859 57.842258 
L 237.031838 59.624987 
L 236.30853 62.278386 
L 237.320351 63.610496 
L 235.565632 66.830383 
L 236.187617 68.35182 
L 236.707843 71.7934 
L 236.27368 73.877449 
L 237.628336 78.417105 
L 237.025018 80.427301 
L 237.377245 81.927694 
L 236.351159 84.040766 
L 235.613751 85.959891 
L 237.455257 88.331549 
L 237.122591 91.531678 
L 237.366163 94.44673 
L 237.801536 95.791922 
L 237.855154 97.244203 
L 238.240337 98.597283 
L 237.879321 100.132051 
L 238.521918 102.843617 
L 238.076356 104.345479 
L 238.700636 105.638308 
L 237.098212 107.287944 
L 237.303579 108.626625 
L 237.115705 110.012759 
L 237.272255 111.351322 
L 237.775386 112.660758 
L 237.884397 114.010134 
L 237.597728 115.380125 
L 237.69425 118.072828 
L 237.334318 119.42 
L 238.066194 120.773497 
L 238.029823 122.126582 
L 237.226238 123.440909 
L 237.513303 124.804586 
L 237.115705 128.827241 
L 237.303579 130.213375 
L 238.567892 131.778823 
L 238.076356 134.494521 
L 238.521918 135.996383 
L 238.57523 137.43642 
L 237.518371 138.620276 
L 238.240337 140.242717 
L 237.855154 141.595797 
L 237.610223 145.966827 
L 237.305584 148.901068 
L 236.420519 150.101179 
L 236.886286 151.84662 
L 236.633268 153.322313 
L 238.036892 155.565019 
L 237.711597 157.071172 
L 237.628336 160.422895 
L 237.207083 161.938192 
L 237.549145 165.70915 
L 237.023317 167.238643 
L 237.090652 169.159051 
L 236.80442 170.893483 
L 237.089255 173.048938 
L 237.621305 175.442518 
L 236.605622 176.779712 
L 237.324978 179.438128 
L 237.683252 181.910004 
L 237.406602 183.946106 
L 237.36162 186.229378 
L 236.705633 188.0455 
L 237.912883 191.589612 
L 235.269913 191.670584 
L 236.857348 195.784138 
L 235.218954 196.844557 
L 234.073929 198.402689 
L 231.651794 198.598811 
L 227.293535 196.548904 
L 225.662193 197.429676 
L 223.318009 197.433642 
L 221.223461 197.667577 
L 216.632845 197.407944 
L 215.013483 198.088086 
L 212.347436 197.234793 
L 209.932171 196.61929 
L 207.94994 196.56049 
L 205.794077 196.147445 
L 204.412318 196.940359 
L 202.295169 196.44181 
L 201.083313 197.495171 
L 199.171475 197.239084 
L 197.608094 197.593511 
L 195.887249 197.590134 
L 194.329848 197.883323 
L 191.755922 195.81233 
L 190.382305 196.366617 
L 187.351867 196.723626 
L 185.962596 197.202897 
L 184.449995 197.313811 
L 182.615543 196.357395 
L 181.336091 197.104556 
L 179.84463 197.131437 
L 178.449196 197.483008 
L 174.015146 197.32743 
L 172.617088 197.579858 
L 171.04014 196.734663 
L 169.549611 196.218854 
L 165.408613 196.678485 
L 163.997542 196.423166 
L 162.61721 196.505412 
L 161.222632 196.201998 
L 159.846685 196.237099 
L 158.470318 196.6112 
L 157.100444 195.874754 
L 155.705022 196.564177 
L 151.564446 196.317464 
L 150.149016 196.548753 
L 148.813879 196.035829 
L 147.442799 195.859981 
L 146.016883 196.018786 
L 144.323549 197.579858 
L 140.144006 196.751465 
L 138.761425 196.428102 
L 137.096006 197.131437 
L 134.325093 196.357395 
L 132.835505 196.279823 
L 131.462487 195.832273 
L 129.716001 196.383081 
L 126.697686 196.030606 
L 125.039363 196.145921 
L 123.821237 195.234772 
L 121.210602 197.261688 
L 118.106931 196.593283 
L 116.20661 196.85521 
L 114.825817 196.124848 
L 110.954966 196.458083 
L 108.990697 196.56049 
L 107.413677 196.011422 
L 105.633299 195.732577 
L 102.353894 197.494364 
L 100.96376 196.528381 
L 98.247893 197.275462 
L 96.404254 196.810851 
L 94.090842 196.870367 
L 91.995795 196.596833 
L 91.111426 194.907864 
L 88.026925 195.636339 
L 83.881522 197.342519 
L 81.204857 197.365934 
L 80.083289 195.784138 
L 81.670724 191.670584 
L 78.483627 192.083924 
L 79.682104 188.530486 
L 79.859768 185.991622 
L 79.534035 183.946106 
L 79.546483 181.681939 
L 79.146645 177.652103 
L 78.717423 175.868544 
L 78.937208 173.67253 
L 80.136216 170.893483 
L 80.232793 167.0466 
L 79.710358 165.5225 
L 80.185086 163.4516 
L 79.408195 162.113887 
L 79.312301 160.422895 
L 78.921256 158.906278 
L 79.22904 157.071172 
L 80.926624 154.646077 
L 80.307369 153.322313 
L 80.054351 151.84662 
L 79.48538 150.508451 
L 79.982345 148.771195 
L 79.818046 147.308322 
L 79.330414 145.966827 
L 79.574474 144.39327 
L 79.139101 143.048078 
L 79.085482 141.595797 
L 79.778273 139.961329 
L 78.700366 138.795621 
L 78.727872 137.354898 
L 79.146461 135.845689 
L 80.324942 134.217925 
L 80.577265 131.438672 
L 80.373817 130.112502 
L 79.824931 128.827241 
L 80.038344 127.450796 
L 79.535835 126.147656 
L 79.798427 124.779306 
L 79.65436 122.101286 
L 80.362216 120.748198 
L 80.397907 116.764009 
L 80.457379 115.437024 
L 80.169521 114.085974 
L 80.277004 112.755514 
L 80.778268 111.464966 
L 80.932613 110.145255 
L 80.742197 108.777934 
L 80.944685 107.45802 
L 80.438091 106.015889 
L 80.690107 104.691225 
L 80.601944 103.2957 
L 80.902666 101.974236 
L 80.866066 100.570414 
L 80.137598 98.972467 
L 80.28206 94.670705 
L 80.517177 91.779574 
L 81.371512 90.588295 
L 80.86503 88.874578 
L 81.326886 85.959891 
L 81.263771 84.34708 
L 82.238203 83.19862 
L 80.909982 80.920879 
L 80.29767 78.927514 
L 80.709629 77.428893 
L 80.507247 75.5696 
L 80.863741 72.177486 
L 81.721897 70.865212 
L 81.369824 68.757123 
L 81.375005 66.830383 
L 80.222195 64.036522 
L 80.335015 62.060288 
L 81.374498 60.740566 
L 80.991975 58.29839 
L 81.243846 56.291572 
L 81.263528 54.037157 
L 82.170153 52.491951 
L 81.204262 49.227638 
L 81.670724 47.169416 
L 80.346333 43.312117 
L 82.755335 43.038198 
L 83.374115 40.967396 
L 85.039926 39.971873 
L 88.91494 41.470576 
L 91.517561 41.687938 
L 93.856735 41.687996 
L 95.488149 40.886848 
L 98.024017 41.275113 
L 99.87048 40.845681 
L 101.927153 40.751914 
L 104.177161 41.004321 
L 107.008465 42.22071 
L 108.793567 41.972177 
L 110.954966 42.381917 
L 112.528318 41.899641 
L 114.28477 41.764265 
L 116.381254 42.30477 
L 117.769162 41.600916 
L 119.65869 41.897935 
L 121.210602 41.578312 
L 123.669931 43.274159 
L 128.208295 42.619193 
L 129.716001 42.456919 
L 131.341375 42.665071 
L 135.80962 42.432166 
L 140.227688 42.441647 
L 141.918884 43.561132 
L 144.775728 43.758402 
L 147.494571 43.338893 
L 148.90455 43.523569 
L 152.994993 43.139868 
L 154.381833 43.420298 
L 155.74397 43.362361 
L 157.100444 42.965246 
L 157.100444 42.965246 
" style="fill:none;stroke:#ff7f0e;stroke-linecap:square;stroke-width:1.5;"/>
   </g>
   <g id="patch_3">
    <path d="M 46.870318 228.14 
L 46.870318 10.7 
" style="fill:none;stroke:#000000;stroke-linecap:square;stroke-linejoin:miter;stroke-width:0.8;"/>
   </g>
   <g id="patch_4">
    <path d="M 270.070318 228.14 
L 270.070318 10.7 
" style="fill:none;stroke:#000000;stroke-linecap:square;stroke-linejoin:miter;stroke-width:0.8;"/>
   </g>
   <g id="patch_5">
    <path d="M 46.870318 228.14 
L 270.070318 228.14 
" style="fill:none;stroke:#000000;stroke-linecap:square;stroke-linejoin:miter;stroke-width:0.8;"/>
   </g>
   <g id="patch_6">
    <path d="M 46.870318 10.7 
L 270.070318 10.7 
" style="fill:none;stroke:#000000;stroke-linecap:square;stroke-linejoin:miter;stroke-width:0.8;"/>
   </g>
  </g>
 </g>
 <defs>
  <clipPath id="pf04e8f8d4d">
   <rect height="217.44" width="223.2" x="46.870318" y="10.7"/>
  </clipPath>
 </defs>
</svg>
